<svg xmlns="http://www.w3.org/2000/svg" xmlns:xlink="http://www.w3.org/1999/xlink" contentStyleType="text/css" data-diagram-type="DESCRIPTION" height="251px" preserveAspectRatio="none" style="width:652px;height:251px;background:#FFFFFF;" version="1.1" viewBox="0 0 652 251" width="652px" zoomAndPan="magnify"><?plantuml 1.2026.6?><defs/><g><!--entity ==Container--><g class="entity" data-qualified-name="..Container" data-source-line="88" id="ent0001"><rect fill="#438DD5" height="50.2656" rx="10" ry="10" style="stroke:#2E6295;stroke-width:2;" width="163.3047" x="10.94" y="25.63"/><text fill="#FFFFFF" font-family="sans-serif" font-size="26" font-weight="700" lengthAdjust="spacing" textLength="143.3047" x="20.94" y="59.7638">Container</text></g><!--entity ==Container, Database--><g class="entity" data-qualified-name="..Container. Database" data-source-line="90" id="ent0002"><path d="M209,16 C209,6 295.5908,6 295.5908,6 C295.5908,6 382.1816,6 382.1816,16 L382.1816,85.5313 C382.1816,95.5313 295.5908,95.5313 295.5908,95.5313 C295.5908,95.5313 209,95.5313 209,85.5313 L209,16" fill="#438DD5" style="stroke:#2E6295;stroke-width:2;"/><path d="M209,16 C209,26 295.5908,26 295.5908,26 C295.5908,26 382.1816,26 382.1816,16" fill="none" style="stroke:#2E6295;stroke-width:2;"/><text fill="#FFFFFF" font-family="sans-serif" font-size="26" font-weight="700" lengthAdjust="spacing" textLength="153.1816" x="219" y="54.1338">Container,</text><text fill="#FFFFFF" font-family="sans-serif" font-size="26" font-weight="700" lengthAdjust="spacing" textLength="138.3662" x="226.4077" y="84.3994">Database</text></g><!--entity ==Container, Queue--><g class="entity" data-qualified-name="..Container. Queue" data-source-line="92" id="ent0003"><path d="M11,161.53 L174.1816,161.53 C179.1816,161.53 179.1816,196.7956 179.1816,196.7956 C179.1816,196.7956 179.1816,232.0613 174.1816,232.0613 L11,232.0613 C6,232.0613 6,196.7956 6,196.7956 C6,196.7956 6,161.53 11,161.53" fill="#438DD5" style="stroke:#2E6295;stroke-width:2;"/><path d="M174.1816,161.53 C169.1816,161.53 169.1816,196.7956 169.1816,196.7956 C169.1816,232.0613 174.1816,232.0613 174.1816,232.0613" fill="none" style="stroke:#2E6295;stroke-width:2;"/><text fill="#FFFFFF" font-family="sans-serif" font-size="26" font-weight="700" lengthAdjust="spacing" textLength="153.1816" x="11" y="190.6638">Container,</text><text fill="#FFFFFF" font-family="sans-serif" font-size="26" font-weight="700" lengthAdjust="spacing" textLength="94.3896" x="40.396" y="220.9294">Queue</text></g><!--entity ==Software System--><g class="entity" data-qualified-name="..Software System" data-source-line="94" id="ent0004"><rect fill="#1168BD" height="80.5313" rx="10" ry="10" style="stroke:#0B4884;stroke-width:2;" width="152.3486" x="214.42" y="156.53"/><text fill="#FFFFFF" font-family="sans-serif" font-size="26" font-weight="700" lengthAdjust="spacing" textLength="132.3486" x="224.42" y="190.6638">Software</text><text fill="#FFFFFF" font-family="sans-serif" font-size="26" font-weight="700" lengthAdjust="spacing" textLength="108.3037" x="236.4425" y="220.9294">System</text></g><!--entity 1--><g class="entity" data-qualified-name="1" data-source-line="96" id="ent0005"><rect fill="none" height="36.2969" rx="2.5" ry="2.5" style="stroke:none;stroke-width:0.5;" width="24.4502" x="417.37" y="32.61"/></g><!--link 1 to 1--><g class="link" data-entity-1="ent0005" data-entity-2="ent0005" data-link-type="dependency" data-source-line="97" id="lnk6"><path d="M442.17,40.87 C457.98,32.91 476.82,36.21 476.82,50.76 C476.82,65.32 462.4459,70.8585 446.6359,62.8985" fill="none" id="1-to-1" style="stroke:#444444;stroke-width:2;stroke-dasharray:10,10;"/><polygon fill="#444444" points="442.17,60.65,448.4098,68.27,446.6359,62.8985,452.0074,61.1246,442.17,60.65" style="stroke:#444444;stroke-width:2;stroke-linejoin:miter;stroke-miterlimit:10;"/><text fill="#444444" font-family="sans-serif" font-size="24" lengthAdjust="spacing" textLength="148.4063" x="482.82" y="59.5373">Relationship</text></g><?plantuml-src vLLhRzCm5FsUNt5L93wrQnAwgPIs4ktOO690tuzlRdpRM7NjOZlqWVRVSVhOihwe148W8YLoZg-FVOxjUpKQq3WbYXYfG4Y1JiWeWZQeK9h551sdgCs2Oza1K58Q-6uR01KIZ4TAHe9M9PUg02-6g-VDglT62hF5SwidnX_icyt2EuuJ52PTjK642LGMljY0cNfdpWUTTaIhy-k1V-dsEZpgTp-KZawRUvMdz78zxKVBjiLzlF9V9_16BA80xXFI35am5gXr0VmrMbyJAxicYxdxMdOrDjZISlgvDV9UAhQCHV6td8r4hAS0WVsYMWSqGaBbZ8dHuphkoPnDeac7KHF6KxgdV4fV4qC6HECPXkdwxOrjtuM1t_epvlr5FjKYZCuogTLjSzhvNmngoA6P4ONGMDZxFJbYK7FWzrtgtopwZKeJkv_SViSzRf3dNUK7TDyWTv3BvtF_ylMh8oU6IQ53DesjIlvdMfEsxdNhKtkObkIMppR-7DQLqE-v6S_TT-ifHnxBdOS4drfzDSHWB2C3B-6pegXqBA4I6qpK8bFpGzxppJVQhOtkMELBCAdpGDoNpahklxhDIO79u_CRTdGZtYWYj2rgDX9mVS9XQEkRIcoX1YQ0umW5JLw4PcBe4JCIx7k6xFKbnExqFJZ5xAQoEWe3GyI88wHAfSSybe9YyMTriMn7qqrPU3Ou3TjgSGRDiseHKtwDC-WEtoghdaEspQhbNMKx2UW8ry44jCDr4Oyzj6dbCX0DdkD19bC6pqQTlBSsl02fP4ZA-G40?></g></svg>